# xmcd
#
# Track frame offsets: 
#        150
#        14591
#        30626
#        42008
#        57944
#        72369
#        82707
#        89521
#        101217
#        115148
#        127142
#        138650
#        151811
#        168162
#        183549
#        192813
#        202736
#        213595
#        233421
#        243771
#        258053
#        267572
#        289981
#        313367
#        328687
#        343357
#        354030
#
# Disc length: 4782 seconds
#
# Revision: 3
# Processed by: cddbd v1.5.2PL0 Copyright (c) Steve Scherf et al.
# Submitted via: ExactAudioCopyFreeDBPlugin 1.0
#
DISCID=8a12ac1b
DTITLE=John Denver - All Of My Memories - CD 1
DYEAR=2014
DGENRE=Country
TTITLE0=The Road
TTITLE1=Far Side Of The Hill
TTITLE2=The Wagoner Lad
TTITLE3=Darcy Farrow
TTITLE4=Babe, I Hate To Go
TTITLE5=For Bobbi
TTITLE6=The '68 Nixon (This Year's Model)
TTITLE7=Take Me To Tomorrow
TTITLE8=Rhymes And Reasons
TTITLE9=Circus
TTITLE10=Catch Another Butterfly
TTITLE11=Daydream
TTITLE12=Leaving On A Jet Plane
TTITLE13=Isabel
TTITLE14=Anthem
TTITLE15=Aspenglow
TTITLE16=The Game Is Over
TTITLE17=My Sweet Lady
TTITLE18=Around And Around
TTITLE19=Take Me Home, Country Roads
TTITLE20=I Guess He'd Rather Be In Colorado
TTITLE21=All Of My Memories
TTITLE22=Sunshine On My Shoulders
TTITLE23=Friends With You
TTITLE24=Everyday
TTITLE25=Blow Up Your TV (Spanish Pipe Dream)
TTITLE26=Grizzly Bear Song
EXTD=
EXTT0=
EXTT1=
EXTT2=
EXTT3=
EXTT4=
EXTT5=
EXTT6=
EXTT7=
EXTT8=
EXTT9=
EXTT10=
EXTT11=
EXTT12=
EXTT13=
EXTT14=
EXTT15=
EXTT16=
EXTT17=
EXTT18=
EXTT19=
EXTT20=
EXTT21=
EXTT22=
EXTT23=
EXTT24=
EXTT25=
EXTT26=
PLAYORDER=
